# Blender v3.6.4 OBJ File: ''
# www.blender.org
mtllib building.mtl
o Cube_Cube.001
v -1.515667 -0.055543 1.836923
v -1.515667 0.060718 1.766751
v -1.515667 -2.335801 -1.940992
v -1.515667 -2.219540 -2.011164
v -0.328268 -0.055543 1.836923
v -0.328268 0.060718 1.766751
v -0.328268 -2.335801 -1.940992
v -0.328268 -2.219540 -2.011164
vt 0.375000 0.000000
vt 0.625000 0.000000
vt 0.625000 0.250000
vt 0.375000 0.250000
vt 0.625000 0.500000
vt 0.375000 0.500000
vt 0.625000 0.750000
vt 0.375000 0.750000
vt 0.625000 1.000000
vt 0.375000 1.000000
vt 0.125000 0.500000
vt 0.125000 0.750000
vt 0.875000 0.500000
vt 0.875000 0.750000
vn -1.0000 -0.0000 0.0000
vn 0.0000 -0.5167 -0.8561
vn 1.0000 0.0000 0.0000
vn 0.0000 0.5167 0.8561
vn 0.0000 -0.8561 0.5167
vn 0.0000 0.8561 -0.5167
usemtl Material.001
s off
f 1/1/1 2/2/1 4/3/1 3/4/1
f 3/4/2 4/3/2 8/5/2 7/6/2
f 7/6/3 8/5/3 6/7/3 5/8/3
f 5/8/4 6/7/4 2/9/4 1/10/4
f 3/11/5 7/6/5 5/8/5 1/12/5
f 8/5/6 4/13/6 2/14/6 6/7/6
o world_geometry_world_geometry_MESH
v 2.438400 2.438400 -2.530685
v 0.000000 2.438400 -2.530685
v 0.000000 -2.438400 -2.530685
v 2.438400 -2.438400 -2.530685
v 1.828800 1.828800 -0.092285
v 1.828800 1.828800 -1.921085
v 0.000000 1.828800 -1.921085
v 0.000000 1.828800 -0.092285
v 2.438400 1.828800 -2.530685
v 2.438400 1.828800 -0.092285
v 2.438400 2.438400 -0.092285
v 0.000000 2.438400 -0.092285
v 1.828800 -1.828800 -1.921085
v 1.828800 -1.828800 -0.092285
v 0.000000 -1.828800 -0.092285
v 0.000000 -1.828800 -1.921085
v 2.438400 -1.828800 -2.530685
v 2.438400 -1.828800 -0.092285
v 0.000000 -0.126106 -1.921085
v 1.818220 -0.126106 -1.921085
v 1.818220 -1.828800 -1.921085
v 0.000000 0.045344 -1.921085
v 1.818220 1.828800 -1.921085
v 1.818220 0.045344 -1.921085
v 1.818220 -0.126106 -0.092285
v 1.818220 0.045344 -0.092285
v 0.000000 -0.126106 -0.092285
v 0.000000 0.045344 -0.092285
v 2.438400 -2.438400 -0.092285
v 0.000000 -2.438400 -0.092285
v -2.438400 2.438400 -2.530685
v -2.438400 -2.438400 -2.530685
v -1.828800 1.828800 -1.921085
v -1.828800 1.828800 -0.092285
v -2.438400 2.438400 -0.092285
v -2.438400 1.828800 -0.092285
v -2.438400 1.828800 -2.530685
v -1.828800 -1.828800 -0.092285
v -1.828800 -1.828800 -1.921085
v -0.372530 1.828800 -1.921085
v -0.372530 -1.828800 -1.921085
v -0.372530 -0.126106 -1.921085
v -0.372530 0.045344 -1.921085
v -0.372530 0.045344 -0.092285
v -0.372530 -0.126106 -0.092285
v -2.438400 -1.828800 -0.092285
v -2.438400 -1.828800 -2.530685
v -2.438400 -2.438400 -0.092285
v 2.438400 2.438400 2.346115
v 2.438400 1.828800 2.346115
v 0.000000 1.828800 2.346115
v 0.000000 2.438400 2.346115
v 2.438400 -1.828800 2.346115
v 1.828800 -1.828800 2.346115
v 1.828800 1.828800 2.346115
v 1.828800 -0.609107 2.346115
v 0.000000 -0.609107 2.346115
v 1.219200 -0.609107 2.346115
v 1.219200 -1.828800 2.346115
v 0.533400 -0.609107 2.346115
v 0.533400 -1.828800 2.346115
v 0.000000 -1.828800 2.346115
v 0.000000 -2.438400 2.346115
v 2.438400 -2.438400 2.346115
v 1.828800 1.828800 1.736515
v 0.000000 1.828800 1.736515
v 0.533400 -1.828800 1.736515
v 1.219200 -1.828800 1.736515
v 1.828800 -1.828800 1.736515
v 0.000000 -1.828800 1.736515
v 1.818220 -0.609107 1.736515
v 1.818220 -0.126106 1.736515
v 0.000000 -0.126106 1.736515
v 0.000000 -0.609107 1.736515
v 0.533400 -0.609107 1.736515
v 1.818220 0.045344 1.736515
v 1.818220 1.828800 1.736515
v 0.000000 0.045344 1.736515
v 1.828800 -0.609107 1.736515
v 1.219200 -0.609107 1.736515
v -2.438400 2.438400 2.346115
v -2.438400 -2.438400 2.346115
v -1.828800 1.828800 1.736515
v -2.438400 1.828800 2.346115
v -1.828800 -1.828800 1.736515
v -0.372530 1.828800 1.736515
v -0.372530 0.045344 1.736515
v -0.372530 -1.828800 1.736515
v -0.372530 -0.126106 1.736515
v -2.438400 -1.828800 2.346115
vt 1.000000 2.000000
vt 1.000000 1.750000
vt 1.000000 0.250000
vt 1.000000 0.000000
vt 0.000000 0.000000
vt 0.000000 2.000000
vt 0.000000 9.000000
vt 0.000000 9.750000
vt 0.745661 9.750000
vt 0.750000 9.750000
vt 0.750000 9.000000
vt 8.000000 2.000000
vt 8.000000 1.750000
vt 9.000000 1.750000
vt 9.000000 2.000000
vt 1.000000 9.000000
vt 1.000000 10.000000
vt 0.000000 10.000000
vt 0.000000 9.000000
vt 8.000000 0.250000
vt 9.000000 0.250000
vt 8.000000 1.018596
vt 8.000000 0.948283
vt 8.750000 0.948283
vt 8.750000 1.018596
vt 0.000000 9.750000
vt 0.745661 9.750000
vt 0.745661 9.000000
vt 0.000000 9.000000
vt 0.745661 9.000000
vt 0.745661 9.750000
vt 0.000000 9.750000
vt 0.000000 9.000000
vt 8.000000 0.000000
vt 9.000000 0.000000
vt 0.000000 10.000000
vt 1.000000 10.000000
vt 1.000000 9.000000
vt 0.000000 9.000000
vt -1.000000 0.000000
vt -1.000000 0.250000
vt -1.000000 1.750000
vt -1.000000 2.000000
vt -0.750000 9.000000
vt -0.750000 9.750000
vt -0.152777 9.750000
vt 9.000000 2.000000
vt 9.000000 1.750000
vt 8.000000 1.750000
vt 8.000000 2.000000
vt -1.000000 10.000000
vt -1.000000 9.000000
vt 8.750000 1.018596
vt 8.750000 0.948283
vt 8.000000 0.948283
vt 8.000000 1.018596
vt -0.152777 9.000000
vt -0.152777 9.750000
vt -0.152777 9.750000
vt -0.152777 9.000000
vt 9.000000 0.250000
vt 8.000000 0.250000
vt 9.000000 0.000000
vt 8.000000 0.000000
vt -1.000000 9.000000
vt -1.000000 10.000000
vt 0.000000 2.000000
vt 0.000000 1.750000
vt 0.750000 1.750000
vt 1.000000 1.750000
vt 1.000000 2.000000
vt 0.750000 0.750202
vt 0.750000 0.250000
vt 1.000000 0.250000
vt 0.000000 0.750202
vt 0.218750 0.750202
vt 0.500000 0.750202
vt 0.500000 0.250000
vt 0.000000 0.250000
vt 0.218750 0.250000
vt 1.000000 0.000000
vt 0.000000 0.000000
vt 0.750000 8.250000
vt 0.745661 8.250000
vt 0.000000 8.250000
vt 7.000000 2.000000
vt 7.000000 1.750000
vt 0.000000 8.000000
vt 1.000000 8.000000
vt 7.000000 0.250000
vt 7.250000 1.018596
vt 7.250000 0.948283
vt 0.745661 8.250000
vt 0.000000 8.250000
vt 0.000000 8.250000
vt 0.745661 8.250000
vt 0.218750 8.250000
vt 0.500000 8.250000
vt 0.500000 8.000000
vt 0.218750 8.000000
vt 7.000000 0.750202
vt 7.250000 0.750202
vt 7.250000 0.250000
vt 7.000000 0.250000
vt 7.000000 0.250000
vt 7.250000 0.250000
vt 7.250000 0.750202
vt 7.000000 0.750202
vt 7.000000 0.000000
vt 1.000000 8.000000
vt 0.000000 8.000000
vt -1.000000 1.750000
vt -1.000000 0.250000
vt -1.000000 0.000000
vt -1.000000 2.000000
vt -0.152777 8.250000
vt -0.750000 8.250000
vt 7.000000 1.750000
vt 7.000000 2.000000
vt -1.000000 8.000000
vt 7.250000 0.948283
vt 7.250000 1.018596
vt -0.152777 8.250000
vt -0.152777 8.250000
vt 7.000000 0.250000
vt 7.000000 0.000000
vt -1.000000 8.000000
vt 0.750000 9.750000
vt 0.745661 9.750000
vt 0.000000 9.750000
vt 0.000000 9.000000
vt 0.750000 9.000000
vt 8.750000 0.250000
vt 8.000000 0.250000
vt 8.000000 1.750000
vt 8.750000 1.750000
vt 0.000000 0.250000
vt 0.745661 0.250000
vt 0.745661 0.948283
vt 0.000000 0.948283
vt 0.745661 1.018596
vt 0.745661 1.750000
vt 0.000000 1.750000
vt 0.000000 1.018596
vt 0.750000 0.250000
vt 0.750000 1.750000
vt -0.152777 9.750000
vt -0.750000 9.750000
vt -0.750000 9.000000
vt 8.750000 1.750000
vt 8.000000 1.750000
vt 8.000000 0.250000
vt 8.750000 0.250000
vt -0.152777 0.250000
vt -0.152777 0.948283
vt -0.152777 1.018596
vt -0.152777 1.750000
vt -0.750000 1.750000
vt -0.750000 0.250000
vt 0.500000 8.250000
vt 0.218750 8.250000
vt 0.218750 8.000000
vt 0.500000 8.000000
vt 0.000000 8.250000
vt 0.750000 8.250000
vt 7.250000 0.250000
vt 7.250000 0.750202
vt 7.250000 1.750000
vt 0.745661 0.750202
vt 0.500000 0.750202
vt 0.218750 0.750202
vt 0.000000 0.750202
vt 0.000000 0.948283
vt 0.745661 0.948283
vt 0.218750 0.250000
vt 0.000000 0.250000
vt 0.000000 1.018596
vt 0.000000 1.750000
vt 0.745661 1.750000
vt 0.745661 1.018596
vt 0.750000 1.750000
vt 0.750000 0.750202
vt 0.500000 0.250000
vt 0.750000 0.250000
vt -0.750000 8.250000
vt -0.152777 8.250000
vt 7.250000 1.750000
vt 7.250000 0.250000
vt -0.152777 1.018596
vt -0.152777 1.750000
vt -0.750000 1.750000
vt -0.152777 0.948283
vt -0.152777 0.250000
vt -0.750000 0.250000
vn 0.0000 0.0000 -1.0000
vn 0.0000 -1.0000 0.0000
vn 1.0000 0.0000 0.0000
vn 0.0000 1.0000 0.0000
vn -1.0000 0.0000 0.0000
vn 0.0000 0.0000 1.0000
usemtl BRICK/BRICKWALL003A
s off
f 9/15/7 17/16/7 25/17/7 12/18/7 11/19/7 10/20/7
f 16/21/8 15/22/8 31/23/8 14/24/8 13/25/8
f 19/26/9 18/27/9 17/28/9 9/29/9
f 19/30/10 9/31/10 10/32/10 20/33/10
f 17/28/9 18/27/9 26/34/9 25/35/9
f 34/36/9 33/37/9 28/38/9 32/39/9
f 27/40/8 28/41/8 33/42/8 35/43/8
f 34/44/10 32/45/10 30/46/10 36/47/10
f 37/48/9 12/49/9 25/35/9 26/34/9
f 11/50/8 12/51/8 37/52/8 38/53/8
f 11/19/7 40/54/7 55/55/7 45/56/7 39/57/7 10/20/7
f 42/58/8 41/59/8 48/60/8 15/22/8 16/21/8
f 39/61/11 45/62/11 44/63/11 43/64/11
f 10/32/10 39/65/10 43/66/10 20/33/10
f 51/67/11 50/68/11 53/69/11 52/70/11
f 53/71/8 50/72/8 27/40/8 35/43/8
f 30/46/10 51/73/10 52/74/10 36/47/10
f 55/75/11 54/76/11 44/63/11 45/62/11
f 54/76/11 55/75/11 40/77/11 56/78/11
f 56/79/8 40/80/8 11/50/8 38/53/8
f 60/81/12 59/82/12 63/83/12 58/84/12 57/85/12
f 58/84/12 63/83/12 64/86/12 62/87/12 61/88/12
f 65/89/12 68/90/12 66/91/12 64/86/12 63/83/12 59/82/12
f 67/92/12 62/87/12 64/86/12 66/91/12
f 65/89/12 70/93/12 69/94/12 68/90/12
f 72/95/12 61/88/12 62/87/12 67/92/12 69/94/12 70/93/12 71/96/12
f 73/97/8 85/98/8 74/99/8 16/21/8 13/25/8
f 19/26/9 57/100/9 58/101/9 18/27/9
f 20/33/10 60/102/10 57/103/10 19/30/10
f 18/27/9 58/101/9 61/104/9 26/34/9
f 33/37/9 34/36/9 84/105/9 80/106/9
f 35/43/8 33/42/8 80/107/8 81/108/8
f 36/47/10 86/109/10 84/110/10 34/44/10
f 83/111/8 88/112/8 66/113/8 68/114/8
f 66/115/11 88/116/11 76/117/11 67/118/11
f 69/119/9 75/120/9 83/121/9 68/122/9
f 37/48/9 26/34/9 61/104/9 72/123/9
f 38/53/8 37/52/8 72/124/8 71/125/8
f 92/126/12 98/127/12 90/128/12 71/96/12 70/93/12 65/89/12 59/82/12 60/81/12 89/129/12
f 74/99/8 94/130/8 91/131/8 42/58/8 16/21/8
f 44/63/11 92/132/11 89/133/11 43/64/11
f 20/33/10 43/66/10 89/134/10 60/102/10
f 97/135/11 95/136/11 52/70/11 53/69/11
f 81/108/8 97/137/8 53/71/8 35/43/8
f 36/47/10 52/74/10 95/138/10 86/109/10
f 54/76/11 98/139/11 92/132/11 44/63/11
f 90/140/11 98/139/11 54/76/11 56/78/11
f 71/125/8 90/141/8 56/79/8 38/53/8
usemtl BRICK/BRICKWALL003A_CONSTRUCT
f 21/142/10 29/143/10 24/144/10 23/145/10 22/146/10
f 21/147/11 22/148/11 13/149/11 14/150/11
f 24/151/12 29/152/12 28/153/12 27/154/12
f 32/155/12 31/156/12 15/157/12 30/158/12
f 31/156/12 32/155/12 28/153/12 29/152/12 21/159/12 14/160/12
f 24/144/10 49/161/10 47/162/10 46/163/10 23/145/10
f 41/164/9 42/165/9 46/166/9 47/167/9
f 49/168/12 50/169/12 51/170/12 48/171/12 41/172/12 47/173/12
f 49/168/12 24/151/12 27/154/12 50/169/12
f 30/158/12 15/157/12 48/171/12 51/170/12
f 76/174/10 75/175/10 69/176/10 67/177/10
f 23/145/10 78/178/10 75/175/10 76/174/10 77/179/10 22/146/10
f 22/148/11 77/180/11 87/181/11 73/182/11 13/149/11
f 79/183/7 88/184/7 83/185/7 82/186/7 81/187/7 80/188/7
f 82/186/7 83/185/7 75/189/7 78/190/7
f 86/191/7 74/192/7 85/193/7 84/194/7
f 79/183/7 80/188/7 84/194/7 85/193/7 73/195/7 87/196/7
f 76/197/7 88/184/7 79/183/7 87/196/7 77/198/7
f 46/163/10 93/199/10 96/200/10 78/178/10 23/145/10
f 42/165/9 91/201/9 93/202/9 46/166/9
f 95/203/7 94/204/7 74/192/7 86/191/7
f 91/205/7 94/204/7 95/203/7 97/206/7 96/207/7 93/208/7
f 97/206/7 81/187/7 82/186/7 78/190/7 96/207/7
