# Blender 3.6.4
# www.blender.org
mtllib untitled.mtl
o Cube
v 0.527396 2.271212 -0.495163
v 0.527396 -0.712823 -0.495163
v 0.527396 2.271212 0.495163
v 0.527396 -0.712823 0.495163
v -0.527396 2.271212 -0.495163
v -0.527396 -0.712823 -0.495163
v -0.527396 2.271212 0.495163
v -0.527396 -0.712823 0.495163
vn -0.0000 1.0000 -0.0000
vn -0.0000 -0.0000 1.0000
vn -1.0000 -0.0000 -0.0000
vn -0.0000 -1.0000 -0.0000
vn 1.0000 -0.0000 -0.0000
vn -0.0000 -0.0000 -1.0000
vt 0.625000 0.500000
vt 0.875000 0.500000
vt 0.875000 0.750000
vt 0.625000 0.750000
vt 0.375000 0.750000
vt 0.625000 1.000000
vt 0.375000 1.000000
vt 0.375000 0.000000
vt 0.625000 0.000000
vt 0.625000 0.250000
vt 0.375000 0.250000
vt 0.125000 0.500000
vt 0.375000 0.500000
vt 0.125000 0.750000
s 0
usemtl Material
f 1/1/1 5/2/1 7/3/1 3/4/1
f 4/5/2 3/4/2 7/6/2 8/7/2
f 8/8/3 7/9/3 5/10/3 6/11/3
f 6/12/4 2/13/4 4/5/4 8/14/4
f 2/13/5 1/1/5 3/4/5 4/5/5
f 6/11/6 5/10/6 1/1/6 2/13/6
o Cylinder
v -0.210341 1.660958 -0.479570
v 0.716450 1.297647 -0.398748
v -0.245088 1.323635 -0.339107
v 0.695555 1.094800 -0.093559
v -0.259480 1.183912 0.000000
v 0.702893 1.166030 0.266435
v -0.245088 1.323635 0.339107
v 0.734164 1.469612 0.470355
v -0.210341 1.660958 0.479570
v 0.753337 1.655747 0.470355
v -0.175595 1.998280 0.339107
v 0.784608 1.959329 0.266435
v -0.161202 2.138003 0.000000
v 0.791945 2.030559 -0.093559
v -0.175595 1.998280 -0.339107
v 0.771050 1.827712 -0.398748
vn 0.0835 -0.0086 -0.9965
vn -0.0569 -0.8297 -0.5553
vn -0.1229 -0.9157 -0.3825
vn -0.0722 -0.9781 0.1950
vn -0.1229 -0.9157 0.3825
vn 0.9947 -0.1025 -0.0000
vn -0.0286 -0.5553 0.8311
vn -0.0675 -0.3776 0.9235
vn 0.0096 -0.0010 1.0000
vn 0.0109 0.3834 0.9235
vn 0.0852 0.5495 0.8311
vn 0.0663 0.9216 0.3825
vn 0.1287 0.9723 0.1950
vn 0.0663 0.9216 -0.3825
vn 0.1135 0.8238 -0.5553
vn -0.9947 0.1025 -0.0000
vn 0.0109 0.3834 -0.9235
vn -0.0675 -0.3776 -0.9235
vt 0.750000 0.490000
vt 0.116663 0.449553
vt 0.383337 0.449553
vt 0.485388 0.296822
vt 0.875000 0.500000
vt 0.990000 0.250000
vt 0.449553 0.116663
vt 0.750000 0.500000
vt 0.919706 0.080294
vt 0.014612 0.296822
vt 0.050447 0.116663
vt 0.203178 0.014612
vt 0.296822 0.014612
vt 0.625000 0.500000
vt 0.750000 0.010000
vt 0.500000 0.500000
vt 0.580294 0.080294
vt 0.375000 0.500000
vt 0.510000 0.250000
vt 0.250000 0.500000
vt 0.580294 0.419706
vt 0.919706 0.419706
vt 0.125000 0.500000
vt 1.000000 0.500000
s 0
usemtl Material.001
f 9/15/7 24/16/7 10/17/7
f 10/17/8 12/18/8 11/19/8
f 12/18/9 13/20/9 11/19/9
f 12/18/10 14/21/10 13/22/10
f 14/21/11 15/23/11 13/22/11
f 24/16/12 22/24/12 20/25/12 18/26/12 16/27/12 14/21/12 12/18/12 10/17/12
f 14/21/13 16/27/13 15/28/13
f 16/27/14 17/29/14 15/28/14
f 16/27/15 18/26/15 17/30/15
f 17/30/16 18/26/16 19/31/16
f 19/31/17 18/26/17 20/25/17
f 19/32/18 20/25/18 21/33/18
f 21/33/19 20/25/19 22/24/19
f 21/34/20 22/24/20 23/35/20
f 23/35/21 22/24/21 24/16/21
f 9/15/22 11/36/22 13/20/22 15/23/22 17/29/22 19/31/22 21/33/22 23/35/22
f 9/15/23 23/37/23 24/16/23
f 9/38/24 10/17/24 11/36/24
